<svg width="32" height="32" viewBox="0 0 32 32" fill="none" xmlns="http://www.w3.org/2000/svg">
<g clip-path="url(#clip0_100_156)">
<path d="M15.9998 29.3334C8.63584 29.3334 2.6665 23.364 2.6665 16C2.6665 8.63602 8.63584 2.66669 15.9998 2.66669C23.3638 2.66669 29.3332 8.63602 29.3332 16C29.3332 23.364 23.3638 29.3334 15.9998 29.3334ZM15.9998 26.6667C18.8288 26.6667 21.5419 25.5429 23.5423 23.5425C25.5427 21.5421 26.6665 18.829 26.6665 16C26.6665 13.171 25.5427 10.4579 23.5423 8.45755C21.5419 6.45716 18.8288 5.33335 15.9998 5.33335C13.1709 5.33335 10.4578 6.45716 8.45736 8.45755C6.45698 10.4579 5.33317 13.171 5.33317 16C5.33317 18.829 6.45698 21.5421 8.45736 23.5425C10.4578 25.5429 13.1709 26.6667 15.9998 26.6667ZM15.9998 14.1147L19.7705 10.3427L21.6572 12.2294L17.8852 16L21.6572 19.7707L19.7705 21.6574L15.9998 17.8854L12.2292 21.6574L10.3425 19.7707L14.1145 16L10.3425 12.2294L12.2292 10.3427L15.9998 14.1147Z" fill="#D0D5DD"/>
</g>
<defs>
<clipPath id="clip0_100_156">
<rect width="32" height="32" fill="white"/>
</clipPath>
</defs>
</svg>
