<svg width="11" height="12" viewBox="0 0 11 12" fill="none" xmlns="http://www.w3.org/2000/svg">
<path d="M1.33317 7.74999H2.49984V10.6667H9.49984V1.33332H2.49984V4.24999H1.33317V0.74999C1.33317 0.59528 1.39463 0.446907 1.50403 0.337511C1.61342 0.228115 1.76179 0.166656 1.9165 0.166656H10.0832C10.2379 0.166656 10.3863 0.228115 10.4956 0.337511C10.605 0.446907 10.6665 0.59528 10.6665 0.74999V11.25C10.6665 11.4047 10.605 11.5531 10.4956 11.6625C10.3863 11.7719 10.2379 11.8333 10.0832 11.8333H1.9165C1.76179 11.8333 1.61342 11.7719 1.50403 11.6625C1.39463 11.5531 1.33317 11.4047 1.33317 11.25V7.74999ZM4.83317 5.41666V3.66666L7.74984 5.99999L4.83317 8.33332V6.58332H0.166504V5.41666H4.83317Z" fill="#667085"/>
</svg>
