<svg width="86" height="86" viewBox="0 0 86 86" fill="none" xmlns="http://www.w3.org/2000/svg">
<path d="M15.6875 0C11.5932 0 7.66663 1.62645 4.77154 4.52154C1.87645 7.41663 0.25 11.3432 0.25 15.4375V70.0625C0.25 74.1568 1.87645 78.0834 4.77154 80.9785C7.66663 83.8736 11.5932 85.5 15.6875 85.5H70.3125C74.4068 85.5 78.3334 83.8736 81.2285 80.9785C84.1236 78.0834 85.75 74.1568 85.75 70.0625V15.4375C85.75 11.3432 84.1236 7.41663 81.2285 4.52154C78.3334 1.62645 74.4068 0 70.3125 0H15.6875ZM68.08 29.83L35.9985 61.8783C35.3305 62.5454 34.4251 62.9201 33.481 62.9201C32.5369 62.9201 31.6315 62.5454 30.9635 61.8783L17.92 48.83C17.2907 48.1547 16.9481 47.2615 16.9644 46.3385C16.9807 45.4156 17.3546 44.535 18.0073 43.8823C18.66 43.2296 19.5406 42.8557 20.4635 42.8394C21.3864 42.8231 22.2797 43.1657 22.955 43.795L33.4857 54.321L63.045 24.7902C63.3762 24.4596 63.7693 24.1975 64.2019 24.0188C64.6344 23.8402 65.0979 23.7484 65.5659 23.7489C66.0338 23.7493 66.4972 23.8419 66.9294 24.0214C67.3615 24.2009 67.7542 24.4638 68.0847 24.795C68.4154 25.1262 68.6775 25.5193 68.8562 25.9519C69.0348 26.3844 69.1266 26.8479 69.1261 27.3159C69.1257 27.7838 69.0331 28.2472 68.8536 28.6793C68.6741 29.1115 68.4112 29.5041 68.08 29.8348V29.83Z" fill="#34A853"/>
</svg>
