<svg width="24" height="24" viewBox="0 0 24 24" fill="none" xmlns="http://www.w3.org/2000/svg">
<path d="M4.22221 19.778C4.68608 20.2425 5.23717 20.6108 5.84382 20.8617C6.45047 21.1126 7.10072 21.2412 7.75721 21.24C8.41383 21.2411 9.06422 21.1126 9.67103 20.8617C10.2778 20.6108 10.8291 20.2425 11.2932 19.778L14.1212 16.949L12.7072 15.535L9.87921 18.364C9.31568 18.925 8.55288 19.24 7.75771 19.24C6.96253 19.24 6.19974 18.925 5.63621 18.364C5.07471 17.8007 4.75941 17.0378 4.75941 16.2425C4.75941 15.4472 5.07471 14.6843 5.63621 14.121L8.46521 11.293L7.05121 9.879L4.22221 12.707C3.28601 13.6455 2.76025 14.9169 2.76025 16.2425C2.76025 17.5681 3.28601 18.8395 4.22221 19.778ZM19.7782 11.293C20.7139 10.3543 21.2393 9.08292 21.2393 7.7575C21.2393 6.43208 20.7139 5.16072 19.7782 4.222C18.8397 3.28581 17.5683 2.76005 16.2427 2.76005C14.9171 2.76005 13.6457 3.28581 12.7072 4.222L9.87921 7.051L11.2932 8.465L14.1212 5.636C14.6847 5.07499 15.4475 4.76003 16.2427 4.76003C17.0379 4.76003 17.8007 5.07499 18.3642 5.636C18.9257 6.19927 19.241 6.96217 19.241 7.7575C19.241 8.55283 18.9257 9.31573 18.3642 9.879L15.5352 12.707L16.9492 14.121L19.7782 11.293Z" fill="white"/>
<path d="M8.46383 16.95L7.04883 15.536L15.5358 7.05L16.9498 8.465L8.46383 16.95Z" fill="white"/>
</svg>
