<svg width="28" height="28" viewBox="0 0 28 28" fill="none" xmlns="http://www.w3.org/2000/svg">
<path d="M5.05556 0C3.71474 0 2.42884 0.532637 1.48074 1.48074C0.532637 2.42884 0 3.71474 0 5.05556V22.9444C0 24.2853 0.532637 25.5712 1.48074 26.5193C2.42884 27.4674 3.71474 28 5.05556 28H22.9444C24.2853 28 25.5712 27.4674 26.5193 26.5193C27.4674 25.5712 28 24.2853 28 22.9444V5.05556C28 3.71474 27.4674 2.42884 26.5193 1.48074C25.5712 0.532637 24.2853 0 22.9444 0H5.05556ZM22.2133 9.76889L11.7071 20.2642C11.4884 20.4827 11.1918 20.6054 10.8827 20.6054C10.5735 20.6054 10.277 20.4827 10.0582 20.2642L5.78667 15.9911C5.58059 15.7699 5.4684 15.4774 5.47373 15.1752C5.47906 14.8729 5.6015 14.5846 5.81525 14.3708C6.02901 14.1571 6.31739 14.0346 6.61963 14.0293C6.92188 14.024 7.2144 14.1361 7.43556 14.3422L10.8842 17.7893L20.5644 8.11844C20.6729 8.01018 20.8017 7.92433 20.9433 7.86582C21.0849 7.8073 21.2367 7.77726 21.39 7.7774C21.5432 7.77755 21.695 7.80788 21.8365 7.86666C21.978 7.92544 22.1066 8.01153 22.2149 8.12C22.3232 8.22847 22.409 8.35721 22.4675 8.49885C22.526 8.6405 22.5561 8.79229 22.5559 8.94554C22.5558 9.0988 22.5255 9.25053 22.4667 9.39207C22.4079 9.5336 22.3218 9.66218 22.2133 9.77044V9.76889Z" fill="white"/>
</svg>
