<svg width="42" height="42" viewBox="0 0 42 42" fill="none" xmlns="http://www.w3.org/2000/svg">
<rect width="40" height="40" rx="20" transform="matrix(-1 0 0 1 41 1)" fill="#212939"/>
<path d="M13.6739 21.5062C13.4704 21.3318 13.3687 21.2446 13.3314 21.1409C13.2987 21.0498 13.2987 20.9502 13.3314 20.8591C13.3687 20.7554 13.4704 20.6682 13.6739 20.4938L20.7328 14.4433C21.083 14.1431 21.2581 13.9931 21.4063 13.9894C21.5352 13.9862 21.6582 14.0428 21.7397 14.1427C21.8333 14.2576 21.8333 14.4883 21.8333 14.9495V18.5289C23.6122 18.8401 25.2403 19.7415 26.4502 21.0949C27.7693 22.5704 28.499 24.48 28.5 26.4591V26.9691C27.6255 25.9157 26.5337 25.0638 25.2994 24.4716C24.2111 23.9495 23.0347 23.6403 21.8333 23.5588V27.0505C21.8333 27.5117 21.8333 27.7424 21.7397 27.8573C21.6582 27.9572 21.5352 28.0138 21.4063 28.0106C21.2581 28.0069 21.083 27.8569 20.7328 27.5567L13.6739 21.5062Z" stroke="#98A2B3" stroke-width="1.66667" stroke-linecap="round" stroke-linejoin="round"/>
<rect width="40" height="40" rx="20" transform="matrix(-1 0 0 1 41 1)" stroke="#212939" stroke-linecap="round" stroke-linejoin="round" stroke-dasharray="1 3"/>
</svg>
