<svg width="154" height="38" viewBox="0 0 154 38" fill="none" xmlns="http://www.w3.org/2000/svg">
<path d="M6.6 20.69L0.21 7.1H5.25L9.84 17.27L8.97 17H11.49L10.56 17.27L14.7 7.1H19.47L13.59 20.69H6.6ZM7.68 29V20H12.51V29H7.68ZM22.1768 29V7.1H27.0968V29H22.1768ZM26.4968 20.18V16.1H34.9568V20.18H26.4968ZM26.4968 11.18V7.1H35.3168V11.18H26.4968ZM43.1639 29.15V25.31H48.2939C49.2139 25.31 49.9039 25.07 50.3639 24.59C50.8239 24.11 51.0539 23.43 51.0539 22.55C51.0539 21.67 50.8239 21 50.3639 20.54C49.9039 20.06 49.2139 19.82 48.2939 19.82H43.1639V16.85H48.0539C49.5739 16.85 50.9239 17.04 52.1039 17.42C53.2839 17.78 54.2139 18.37 54.8939 19.19C55.5739 20.01 55.9139 21.12 55.9139 22.52V22.94C55.9139 24.24 55.6139 25.36 55.0139 26.3C54.4139 27.22 53.5339 27.93 52.3739 28.43C51.2139 28.91 49.7739 29.15 48.0539 29.15H43.1639ZM38.9639 29.15V6.92H43.7639V29.15H38.9639ZM43.1639 19.04V16.1H47.4839C48.4239 16.1 49.1039 15.86 49.5239 15.38C49.9439 14.9 50.1539 14.26 50.1539 13.46C50.1539 12.62 49.9439 11.96 49.5239 11.48C49.1039 11 48.4239 10.76 47.4839 10.76H43.1639V6.92H47.1839C49.7039 6.92 51.6339 7.45 52.9739 8.51C54.3339 9.57 55.0139 11.08 55.0139 13.04V13.49C55.0139 14.85 54.6639 15.94 53.9639 16.76C53.2839 17.58 52.3539 18.17 51.1739 18.53C50.0139 18.87 48.6839 19.04 47.1839 19.04H43.1639Z" fill="#34A853"/>
<path d="M67.17 18V8.51H69.692L72.071 14.178H72.305L74.671 8.51H77.232V18H75.399V9.901L75.633 9.927L73.072 16.063H71.187L68.613 9.927L68.86 9.901V18H67.17ZM79.7683 18V10.941H81.5753V18H79.7683ZM78.7803 12.293V10.941H81.5753V12.293H78.7803ZM80.4313 10.096C80.076 10.096 79.8117 10.005 79.6383 9.823C79.4737 9.63233 79.3913 9.39833 79.3913 9.121C79.3913 8.82633 79.4737 8.588 79.6383 8.406C79.8117 8.224 80.076 8.133 80.4313 8.133C80.7867 8.133 81.0467 8.224 81.2113 8.406C81.376 8.588 81.4583 8.82633 81.4583 9.121C81.4583 9.39833 81.376 9.63233 81.2113 9.823C81.0467 10.005 80.7867 10.096 80.4313 10.096ZM86.7909 18.247C86.1755 18.247 85.6425 18.143 85.1919 17.935C84.7499 17.727 84.3772 17.4497 84.0739 17.103C83.7792 16.7563 83.5582 16.3663 83.4109 15.933C83.2635 15.4997 83.1899 15.0577 83.1899 14.607V14.36C83.1899 13.8833 83.2635 13.4283 83.4109 12.995C83.5669 12.553 83.7965 12.163 84.0999 11.825C84.4032 11.4783 84.7759 11.2053 85.2179 11.006C85.6685 10.798 86.1885 10.694 86.7779 10.694C87.3932 10.694 87.9435 10.8153 88.4289 11.058C88.9142 11.292 89.2999 11.6213 89.5859 12.046C89.8805 12.4707 90.0452 12.9647 90.0799 13.528H88.3249C88.2815 13.164 88.1255 12.8607 87.8569 12.618C87.5969 12.3753 87.2372 12.254 86.7779 12.254C86.3792 12.254 86.0455 12.3493 85.7769 12.54C85.5169 12.7307 85.3219 12.995 85.1919 13.333C85.0619 13.6623 84.9969 14.0437 84.9969 14.477C84.9969 14.893 85.0575 15.27 85.1789 15.608C85.3089 15.946 85.5039 16.2103 85.7639 16.401C86.0325 16.5917 86.3749 16.687 86.7909 16.687C87.1029 16.687 87.3715 16.6307 87.5969 16.518C87.8222 16.4053 87.9999 16.2493 88.1299 16.05C88.2685 15.8507 88.3552 15.6253 88.3899 15.374H90.1449C90.1102 15.946 89.9412 16.4487 89.6379 16.882C89.3432 17.3067 88.9489 17.6403 88.4549 17.883C87.9695 18.1257 87.4149 18.247 86.7909 18.247ZM91.5924 18V10.941H93.0224V13.931H92.9834C92.9834 12.917 93.2001 12.15 93.6334 11.63C94.0668 11.11 94.7038 10.85 95.5444 10.85H95.8044V12.423H95.3104C94.7038 12.423 94.2314 12.5877 93.8934 12.917C93.5641 13.2377 93.3994 13.7057 93.3994 14.321V18H91.5924ZM100.356 18.247C99.7315 18.247 99.1812 18.1473 98.7045 17.948C98.2279 17.7487 97.8249 17.48 97.4955 17.142C97.1662 16.7953 96.9149 16.4053 96.7415 15.972C96.5769 15.5387 96.4945 15.088 96.4945 14.62V14.347C96.4945 13.8617 96.5812 13.4023 96.7545 12.969C96.9365 12.527 97.1922 12.137 97.5215 11.799C97.8595 11.4523 98.2669 11.1837 98.7435 10.993C99.2202 10.7937 99.7575 10.694 100.356 10.694C100.954 10.694 101.491 10.7937 101.968 10.993C102.444 11.1837 102.847 11.4523 103.177 11.799C103.515 12.137 103.77 12.527 103.944 12.969C104.117 13.4023 104.204 13.8617 104.204 14.347V14.62C104.204 15.088 104.117 15.5387 103.944 15.972C103.779 16.4053 103.532 16.7953 103.203 17.142C102.873 17.48 102.47 17.7487 101.994 17.948C101.517 18.1473 100.971 18.247 100.356 18.247ZM100.356 16.7C100.798 16.7 101.17 16.6047 101.474 16.414C101.777 16.2147 102.007 15.9503 102.163 15.621C102.319 15.283 102.397 14.9017 102.397 14.477C102.397 14.0437 102.314 13.6623 102.15 13.333C101.994 12.995 101.76 12.7307 101.448 12.54C101.144 12.3407 100.78 12.241 100.356 12.241C99.9309 12.241 99.5625 12.3407 99.2505 12.54C98.9472 12.7307 98.7132 12.995 98.5485 13.333C98.3839 13.6623 98.3015 14.0437 98.3015 14.477C98.3015 14.9017 98.3795 15.283 98.5355 15.621C98.7002 15.9503 98.9342 16.2147 99.2375 16.414C99.5409 16.6047 99.9135 16.7 100.356 16.7ZM67.17 29V19.51H69.016V29H67.17ZM68.756 25.048V23.488L72.552 23.475V25.035L68.756 25.048ZM68.756 21.07V19.51H72.734V21.07H68.756ZM74.5505 29V21.941H76.3575V29H74.5505ZM73.5625 23.293V21.941H76.3575V23.293H73.5625ZM75.2135 21.096C74.8582 21.096 74.5939 21.005 74.4205 20.823C74.2559 20.6323 74.1735 20.3983 74.1735 20.121C74.1735 19.8263 74.2559 19.588 74.4205 19.406C74.5939 19.224 74.8582 19.133 75.2135 19.133C75.5689 19.133 75.8289 19.224 75.9935 19.406C76.1582 19.588 76.2405 19.8263 76.2405 20.121C76.2405 20.3983 76.1582 20.6323 75.9935 20.823C75.8289 21.005 75.5689 21.096 75.2135 21.096ZM78.4401 29V21.941H79.8701V24.97H79.7401C79.7401 24.2507 79.8354 23.6527 80.0261 23.176C80.2168 22.6907 80.4984 22.3267 80.8711 22.084C81.2524 21.8413 81.7248 21.72 82.2881 21.72H82.3661C83.2068 21.72 83.8438 21.993 84.2771 22.539C84.7104 23.0763 84.9271 23.8823 84.9271 24.957V29H83.1201V24.801C83.1201 24.3677 82.9944 24.0167 82.7431 23.748C82.5004 23.4793 82.1624 23.345 81.7291 23.345C81.2871 23.345 80.9274 23.4837 80.6501 23.761C80.3814 24.0297 80.2471 24.3937 80.2471 24.853V29H78.4401ZM91.1468 29V26.907H90.8478V24.58C90.8478 24.1727 90.7481 23.8693 90.5488 23.67C90.3494 23.4707 90.0418 23.371 89.6258 23.371C89.4091 23.371 89.1491 23.3753 88.8458 23.384C88.5424 23.3927 88.2348 23.4057 87.9228 23.423C87.6194 23.4317 87.3464 23.4447 87.1038 23.462V21.928C87.3031 21.9107 87.5284 21.8933 87.7798 21.876C88.0311 21.8587 88.2868 21.85 88.5468 21.85C88.8154 21.8413 89.0668 21.837 89.3008 21.837C90.0288 21.837 90.6311 21.9323 91.1078 22.123C91.5931 22.3137 91.9571 22.6127 92.1998 23.02C92.4511 23.4273 92.5768 23.9603 92.5768 24.619V29H91.1468ZM88.8718 29.182C88.3604 29.182 87.9098 29.091 87.5198 28.909C87.1384 28.727 86.8394 28.467 86.6228 28.129C86.4148 27.791 86.3108 27.3837 86.3108 26.907C86.3108 26.387 86.4364 25.9623 86.6878 25.633C86.9478 25.3037 87.3074 25.0567 87.7668 24.892C88.2348 24.7273 88.7808 24.645 89.4048 24.645H91.0428V25.724H89.3788C88.9628 25.724 88.6421 25.828 88.4168 26.036C88.2001 26.2353 88.0918 26.4953 88.0918 26.816C88.0918 27.1367 88.2001 27.3967 88.4168 27.596C88.6421 27.7953 88.9628 27.895 89.3788 27.895C89.6301 27.895 89.8598 27.8517 90.0678 27.765C90.2844 27.6697 90.4621 27.5137 90.6008 27.297C90.7481 27.0717 90.8304 26.7683 90.8478 26.387L91.2898 26.894C91.2464 27.388 91.1251 27.804 90.9258 28.142C90.7351 28.48 90.4664 28.74 90.1198 28.922C89.7818 29.0953 89.3658 29.182 88.8718 29.182ZM94.5124 29V21.941H95.9424V24.97H95.8124C95.8124 24.2507 95.9077 23.6527 96.0984 23.176C96.289 22.6907 96.5707 22.3267 96.9434 22.084C97.3247 21.8413 97.797 21.72 98.3604 21.72H98.4384C99.279 21.72 99.916 21.993 100.349 22.539C100.783 23.0763 100.999 23.8823 100.999 24.957V29H99.1924V24.801C99.1924 24.3677 99.0667 24.0167 98.8154 23.748C98.5727 23.4793 98.2347 23.345 97.8014 23.345C97.3594 23.345 96.9997 23.4837 96.7224 23.761C96.4537 24.0297 96.3194 24.3937 96.3194 24.853V29H94.5124ZM106.075 29.247C105.46 29.247 104.927 29.143 104.476 28.935C104.034 28.727 103.661 28.4497 103.358 28.103C103.063 27.7563 102.842 27.3663 102.695 26.933C102.548 26.4997 102.474 26.0577 102.474 25.607V25.36C102.474 24.8833 102.548 24.4283 102.695 23.995C102.851 23.553 103.081 23.163 103.384 22.825C103.687 22.4783 104.06 22.2053 104.502 22.006C104.953 21.798 105.473 21.694 106.062 21.694C106.677 21.694 107.228 21.8153 107.713 22.058C108.198 22.292 108.584 22.6213 108.87 23.046C109.165 23.4707 109.329 23.9647 109.364 24.528H107.609C107.566 24.164 107.41 23.8607 107.141 23.618C106.881 23.3753 106.521 23.254 106.062 23.254C105.663 23.254 105.33 23.3493 105.061 23.54C104.801 23.7307 104.606 23.995 104.476 24.333C104.346 24.6623 104.281 25.0437 104.281 25.477C104.281 25.893 104.342 26.27 104.463 26.608C104.593 26.946 104.788 27.2103 105.048 27.401C105.317 27.5917 105.659 27.687 106.075 27.687C106.387 27.687 106.656 27.6307 106.881 27.518C107.106 27.4053 107.284 27.2493 107.414 27.05C107.553 26.8507 107.639 26.6253 107.674 26.374H109.429C109.394 26.946 109.225 27.4487 108.922 27.882C108.627 28.3067 108.233 28.6403 107.739 28.883C107.254 29.1257 106.699 29.247 106.075 29.247ZM114.036 29.247C113.429 29.247 112.896 29.143 112.437 28.935C111.986 28.727 111.609 28.4497 111.306 28.103C111.011 27.7477 110.786 27.3533 110.63 26.92C110.482 26.4867 110.409 26.0447 110.409 25.594V25.347C110.409 24.879 110.482 24.4283 110.63 23.995C110.786 23.553 111.011 23.163 111.306 22.825C111.609 22.4783 111.982 22.2053 112.424 22.006C112.866 21.798 113.377 21.694 113.958 21.694C114.72 21.694 115.357 21.863 115.869 22.201C116.389 22.5303 116.779 22.968 117.039 23.514C117.299 24.0513 117.429 24.632 117.429 25.256V25.906H111.176V24.801H116.298L115.739 25.347C115.739 24.8963 115.674 24.5107 115.544 24.19C115.414 23.8693 115.214 23.6223 114.946 23.449C114.686 23.2757 114.356 23.189 113.958 23.189C113.559 23.189 113.221 23.28 112.944 23.462C112.666 23.644 112.454 23.9083 112.307 24.255C112.168 24.593 112.099 25.0003 112.099 25.477C112.099 25.919 112.168 26.3133 112.307 26.66C112.445 26.998 112.658 27.2667 112.944 27.466C113.23 27.6567 113.594 27.752 114.036 27.752C114.478 27.752 114.837 27.6653 115.115 27.492C115.392 27.31 115.57 27.089 115.648 26.829H117.312C117.208 27.3143 117.008 27.739 116.714 28.103C116.419 28.467 116.042 28.7487 115.583 28.948C115.132 29.1473 114.616 29.247 114.036 29.247ZM123.434 29.065V27.583H125.813C126.246 27.583 126.575 27.466 126.801 27.232C127.026 26.9893 127.139 26.66 127.139 26.244C127.139 25.828 127.026 25.5073 126.801 25.282C126.575 25.048 126.246 24.931 125.813 24.931H123.434V23.8H125.683C126.315 23.8 126.879 23.878 127.373 24.034C127.875 24.1813 128.265 24.4327 128.543 24.788C128.829 25.1433 128.972 25.62 128.972 26.218V26.4C128.972 26.9633 128.846 27.4443 128.595 27.843C128.352 28.233 127.984 28.5363 127.49 28.753C127.004 28.961 126.402 29.065 125.683 29.065H123.434ZM121.887 29.065V19.445H123.694V29.065H121.887ZM123.434 24.632V23.501H125.462C125.904 23.501 126.229 23.384 126.437 23.15C126.645 22.916 126.749 22.604 126.749 22.214C126.749 21.824 126.645 21.512 126.437 21.278C126.229 21.044 125.904 20.927 125.462 20.927H123.434V19.445H125.293C126.367 19.445 127.182 19.6703 127.737 20.121C128.3 20.5717 128.582 21.2173 128.582 22.058V22.24C128.582 22.8293 128.439 23.3017 128.153 23.657C127.875 24.0037 127.49 24.255 126.996 24.411C126.502 24.5583 125.934 24.632 125.293 24.632H123.434ZM134.971 29V26.907H134.672V24.58C134.672 24.1727 134.572 23.8693 134.373 23.67C134.174 23.4707 133.866 23.371 133.45 23.371C133.233 23.371 132.973 23.3753 132.67 23.384C132.367 23.3927 132.059 23.4057 131.747 23.423C131.444 23.4317 131.171 23.4447 130.928 23.462V21.928C131.127 21.9107 131.353 21.8933 131.604 21.876C131.855 21.8587 132.111 21.85 132.371 21.85C132.64 21.8413 132.891 21.837 133.125 21.837C133.853 21.837 134.455 21.9323 134.932 22.123C135.417 22.3137 135.781 22.6127 136.024 23.02C136.275 23.4273 136.401 23.9603 136.401 24.619V29H134.971ZM132.696 29.182C132.185 29.182 131.734 29.091 131.344 28.909C130.963 28.727 130.664 28.467 130.447 28.129C130.239 27.791 130.135 27.3837 130.135 26.907C130.135 26.387 130.261 25.9623 130.512 25.633C130.772 25.3037 131.132 25.0567 131.591 24.892C132.059 24.7273 132.605 24.645 133.229 24.645H134.867V25.724H133.203C132.787 25.724 132.466 25.828 132.241 26.036C132.024 26.2353 131.916 26.4953 131.916 26.816C131.916 27.1367 132.024 27.3967 132.241 27.596C132.466 27.7953 132.787 27.895 133.203 27.895C133.454 27.895 133.684 27.8517 133.892 27.765C134.109 27.6697 134.286 27.5137 134.425 27.297C134.572 27.0717 134.655 26.7683 134.672 26.387L135.114 26.894C135.071 27.388 134.949 27.804 134.75 28.142C134.559 28.48 134.291 28.74 133.944 28.922C133.606 29.0953 133.19 29.182 132.696 29.182ZM138.337 29V21.941H139.767V24.97H139.637C139.637 24.2507 139.732 23.6527 139.923 23.176C140.113 22.6907 140.395 22.3267 140.768 22.084C141.149 21.8413 141.621 21.72 142.185 21.72H142.263C143.103 21.72 143.74 21.993 144.174 22.539C144.607 23.0763 144.824 23.8823 144.824 24.957V29H143.017V24.801C143.017 24.3677 142.891 24.0167 142.64 23.748C142.397 23.4793 142.059 23.345 141.626 23.345C141.184 23.345 140.824 23.4837 140.547 23.761C140.278 24.0297 140.144 24.3937 140.144 24.853V29H138.337ZM151.706 29L149.34 25.698H148.287L151.29 21.941H153.175L150.406 25.412L150.445 24.502L153.747 29H151.706ZM146.766 29V19.51H148.573V29H146.766Z" fill="#FDC800"/>
</svg>
