<svg width="151" height="23" viewBox="0 0 151 23" fill="none" xmlns="http://www.w3.org/2000/svg">
<path d="M6.39 13.77L0 0.180001H5.04L9.63 10.35L8.76 10.08H11.28L10.35 10.35L14.49 0.180001H19.26L13.38 13.77H6.39ZM7.47 22.08V13.08H12.3V22.08H7.47Z" fill="white"/>
<path d="M21.9668 22.08V0.180001H26.8868V22.08H21.9668ZM26.2868 13.26V9.18H34.7468V13.26H26.2868ZM26.2868 4.26V0.180001H35.1068V4.26H26.2868Z" fill="white"/>
<path d="M42.9539 22.23V18.39H48.0839C49.0039 18.39 49.6939 18.15 50.1539 17.67C50.6139 17.19 50.8439 16.51 50.8439 15.63C50.8439 14.75 50.6139 14.08 50.1539 13.62C49.6939 13.14 49.0039 12.9 48.0839 12.9H42.9539V9.93H47.8439C49.3639 9.93 50.7139 10.12 51.8939 10.5C53.0739 10.86 54.0039 11.45 54.6839 12.27C55.3639 13.09 55.7039 14.2 55.7039 15.6V16.02C55.7039 17.32 55.4039 18.44 54.8039 19.38C54.2039 20.3 53.3239 21.01 52.1639 21.51C51.0039 21.99 49.5639 22.23 47.8439 22.23H42.9539ZM38.7539 22.23V0H43.5539V22.23H38.7539ZM42.9539 12.12V9.18H47.2739C48.2139 9.18 48.8939 8.94 49.3139 8.46C49.7339 7.98 49.9439 7.34 49.9439 6.54C49.9439 5.7 49.7339 5.04 49.3139 4.56C48.8939 4.08 48.2139 3.84 47.2739 3.84H42.9539V0H46.9739C49.4939 0 51.4239 0.53 52.7639 1.59C54.1239 2.65 54.8039 4.16 54.8039 6.12V6.57C54.8039 7.93 54.4539 9.02 53.7539 9.84C53.0739 10.66 52.1439 11.25 50.9639 11.61C49.8039 11.95 48.4739 12.12 46.9739 12.12H42.9539Z" fill="white"/>
<path d="M63.7039 10.425V0.934984H66.2259L68.6049 6.60298H68.8389L71.2049 0.934984H73.7659V10.425H71.9329V2.32598L72.1669 2.35198L69.6059 8.48798H67.7209L65.1469 2.35198L65.3939 2.32598V10.425H63.7039Z" fill="#FDC800"/>
<path d="M76.3022 10.425V3.36598H78.1092V10.425H76.3022ZM75.3142 4.71798V3.36598H78.1092V4.71798H75.3142ZM76.9652 2.52098C76.6098 2.52098 76.3455 2.42998 76.1722 2.24798C76.0075 2.05732 75.9252 1.82332 75.9252 1.54598C75.9252 1.25132 76.0075 1.01298 76.1722 0.830984C76.3455 0.648984 76.6098 0.557983 76.9652 0.557983C77.3205 0.557983 77.5805 0.648984 77.7452 0.830984C77.9098 1.01298 77.9922 1.25132 77.9922 1.54598C77.9922 1.82332 77.9098 2.05732 77.7452 2.24798C77.5805 2.42998 77.3205 2.52098 76.9652 2.52098Z" fill="#FDC800"/>
<path d="M83.3247 10.672C82.7094 10.672 82.1764 10.568 81.7257 10.36C81.2837 10.152 80.9111 9.87465 80.6077 9.52798C80.3131 9.18132 80.0921 8.79132 79.9447 8.35798C79.7974 7.92465 79.7237 7.48265 79.7237 7.03198V6.78498C79.7237 6.30832 79.7974 5.85332 79.9447 5.41998C80.1007 4.97798 80.3304 4.58798 80.6337 4.24998C80.937 3.90332 81.3097 3.63032 81.7517 3.43098C82.2024 3.22298 82.7224 3.11898 83.3117 3.11898C83.927 3.11898 84.4774 3.24032 84.9627 3.48298C85.4481 3.71698 85.8337 4.04632 86.1197 4.47098C86.4144 4.89565 86.579 5.38965 86.6137 5.95298H84.8587C84.8154 5.58898 84.6594 5.28565 84.3907 5.04298C84.1307 4.80032 83.771 4.67898 83.3117 4.67898C82.913 4.67898 82.5794 4.77432 82.3107 4.96498C82.0507 5.15565 81.8557 5.41998 81.7257 5.75798C81.5957 6.08732 81.5307 6.46865 81.5307 6.90198C81.5307 7.31798 81.5914 7.69498 81.7127 8.03298C81.8427 8.37098 82.0377 8.63532 82.2977 8.82598C82.5664 9.01665 82.9087 9.11198 83.3247 9.11198C83.6367 9.11198 83.9054 9.05565 84.1307 8.94298C84.356 8.83032 84.5337 8.67432 84.6637 8.47498C84.8024 8.27565 84.8891 8.05032 84.9237 7.79898H86.6787C86.644 8.37098 86.475 8.87365 86.1717 9.30698C85.877 9.73165 85.4827 10.0653 84.9887 10.308C84.5034 10.5507 83.9487 10.672 83.3247 10.672Z" fill="#FDC800"/>
<path d="M88.1263 10.425V3.36598H89.5563V6.35598H89.5173C89.5173 5.34198 89.734 4.57498 90.1673 4.05498C90.6006 3.53498 91.2376 3.27498 92.0783 3.27498H92.3383V4.84798H91.8443C91.2376 4.84798 90.7653 5.01265 90.4273 5.34198C90.098 5.66265 89.9333 6.13065 89.9333 6.74598V10.425H88.1263Z" fill="#FDC800"/>
<path d="M96.8894 10.672C96.2654 10.672 95.7151 10.5723 95.2384 10.373C94.7617 10.1737 94.3587 9.90498 94.0294 9.56698C93.7001 9.22032 93.4487 8.83032 93.2754 8.39698C93.1107 7.96365 93.0284 7.51298 93.0284 7.04498V6.77198C93.0284 6.28665 93.1151 5.82732 93.2884 5.39398C93.4704 4.95198 93.7261 4.56198 94.0554 4.22398C94.3934 3.87732 94.8007 3.60865 95.2774 3.41798C95.7541 3.21865 96.2914 3.11898 96.8894 3.11898C97.4874 3.11898 98.0247 3.21865 98.5014 3.41798C98.9781 3.60865 99.3811 3.87732 99.7104 4.22398C100.048 4.56198 100.304 4.95198 100.477 5.39398C100.651 5.82732 100.737 6.28665 100.737 6.77198V7.04498C100.737 7.51298 100.651 7.96365 100.477 8.39698C100.313 8.83032 100.066 9.22032 99.7364 9.56698C99.4071 9.90498 99.0041 10.1737 98.5274 10.373C98.0507 10.5723 97.5047 10.672 96.8894 10.672ZM96.8894 9.12498C97.3314 9.12498 97.7041 9.02965 98.0074 8.83898C98.3107 8.63965 98.5404 8.37532 98.6964 8.04598C98.8524 7.70798 98.9304 7.32665 98.9304 6.90198C98.9304 6.46865 98.8481 6.08732 98.6834 5.75798C98.5274 5.41998 98.2934 5.15565 97.9814 4.96498C97.6781 4.76565 97.3141 4.66598 96.8894 4.66598C96.4647 4.66598 96.0964 4.76565 95.7844 4.96498C95.4811 5.15565 95.2471 5.41998 95.0824 5.75798C94.9177 6.08732 94.8354 6.46865 94.8354 6.90198C94.8354 7.32665 94.9134 7.70798 95.0694 8.04598C95.2341 8.37532 95.4681 8.63965 95.7714 8.83898C96.0747 9.02965 96.4474 9.12498 96.8894 9.12498Z" fill="#FDC800"/>
<path d="M63.7039 21.425V11.935H65.5499V21.425H63.7039ZM65.2899 17.473V15.913L69.0859 15.9V17.46L65.2899 17.473ZM65.2899 13.495V11.935H69.2679V13.495H65.2899Z" fill="#FDC800"/>
<path d="M71.0844 21.425V14.366H72.8914V21.425H71.0844ZM70.0964 15.718V14.366H72.8914V15.718H70.0964ZM71.7474 13.521C71.3921 13.521 71.1277 13.43 70.9544 13.248C70.7897 13.0573 70.7074 12.8233 70.7074 12.546C70.7074 12.2513 70.7897 12.013 70.9544 11.831C71.1277 11.649 71.3921 11.558 71.7474 11.558C72.1027 11.558 72.3627 11.649 72.5274 11.831C72.6921 12.013 72.7744 12.2513 72.7744 12.546C72.7744 12.8233 72.6921 13.0573 72.5274 13.248C72.3627 13.43 72.1027 13.521 71.7474 13.521Z" fill="#FDC800"/>
<path d="M74.9739 21.425V14.366H76.4039V17.395H76.2739C76.2739 16.6756 76.3693 16.0777 76.5599 15.601C76.7506 15.1157 77.0323 14.7517 77.4049 14.509C77.7863 14.2663 78.2586 14.145 78.8219 14.145H78.8999C79.7406 14.145 80.3776 14.418 80.8109 14.964C81.2443 15.5013 81.4609 16.3073 81.4609 17.382V21.425H79.6539V17.226C79.6539 16.7927 79.5283 16.4417 79.2769 16.173C79.0343 15.9043 78.6963 15.77 78.2629 15.77C77.8209 15.77 77.4613 15.9087 77.1839 16.186C76.9153 16.4547 76.7809 16.8187 76.7809 17.278V21.425H74.9739Z" fill="#FDC800"/>
<path d="M87.6806 21.425V19.332H87.3816V17.005C87.3816 16.5977 87.282 16.2943 87.0826 16.095C86.8833 15.8957 86.5756 15.796 86.1596 15.796C85.943 15.796 85.683 15.8003 85.3796 15.809C85.0763 15.8177 84.7686 15.8307 84.4566 15.848C84.1533 15.8567 83.8803 15.8697 83.6376 15.887V14.353C83.837 14.3357 84.0623 14.3183 84.3136 14.301C84.565 14.2837 84.8206 14.275 85.0806 14.275C85.3493 14.2663 85.6006 14.262 85.8346 14.262C86.5626 14.262 87.165 14.3573 87.6416 14.548C88.127 14.7386 88.491 15.0377 88.7336 15.445C88.985 15.8523 89.1106 16.3853 89.1106 17.044V21.425H87.6806ZM85.4056 21.607C84.8943 21.607 84.4436 21.516 84.0536 21.334C83.6723 21.152 83.3733 20.892 83.1566 20.554C82.9486 20.216 82.8446 19.8087 82.8446 19.332C82.8446 18.812 82.9703 18.3873 83.2216 18.058C83.4816 17.7286 83.8413 17.4817 84.3006 17.317C84.7686 17.1523 85.3146 17.07 85.9386 17.07H87.5766V18.149H85.9126C85.4966 18.149 85.176 18.253 84.9506 18.461C84.734 18.6603 84.6256 18.9203 84.6256 19.241C84.6256 19.5617 84.734 19.8217 84.9506 20.021C85.176 20.2203 85.4966 20.32 85.9126 20.32C86.164 20.32 86.3936 20.2767 86.6016 20.19C86.8183 20.0947 86.996 19.9387 87.1346 19.722C87.282 19.4967 87.3643 19.1933 87.3816 18.812L87.8236 19.319C87.7803 19.813 87.659 20.229 87.4596 20.567C87.269 20.905 87.0003 21.165 86.6536 21.347C86.3156 21.5203 85.8996 21.607 85.4056 21.607Z" fill="#FDC800"/>
<path d="M91.0462 21.425V14.366H92.4762V17.395H92.3462C92.3462 16.6756 92.4415 16.0777 92.6322 15.601C92.8229 15.1157 93.1045 14.7517 93.4772 14.509C93.8585 14.2663 94.3309 14.145 94.8942 14.145H94.9722C95.8129 14.145 96.4499 14.418 96.8832 14.964C97.3165 15.5013 97.5332 16.3073 97.5332 17.382V21.425H95.7262V17.226C95.7262 16.7927 95.6005 16.4417 95.3492 16.173C95.1065 15.9043 94.7685 15.77 94.3352 15.77C93.8932 15.77 93.5335 15.9087 93.2562 16.186C92.9875 16.4547 92.8532 16.8187 92.8532 17.278V21.425H91.0462Z" fill="#FDC800"/>
<path d="M102.609 21.672C101.994 21.672 101.461 21.568 101.01 21.36C100.568 21.152 100.195 20.8747 99.8919 20.528C99.5972 20.1813 99.3762 19.7913 99.2289 19.358C99.0816 18.9247 99.0079 18.4827 99.0079 18.032V17.785C99.0079 17.3083 99.0816 16.8533 99.2289 16.42C99.3849 15.978 99.6146 15.588 99.9179 15.25C100.221 14.9033 100.594 14.6303 101.036 14.431C101.487 14.223 102.007 14.119 102.596 14.119C103.211 14.119 103.762 14.2403 104.247 14.483C104.732 14.717 105.118 15.0463 105.404 15.471C105.699 15.8957 105.863 16.3897 105.898 16.953H104.143C104.1 16.589 103.944 16.2857 103.675 16.043C103.415 15.8003 103.055 15.679 102.596 15.679C102.197 15.679 101.864 15.7743 101.595 15.965C101.335 16.1557 101.14 16.42 101.01 16.758C100.88 17.0873 100.815 17.4687 100.815 17.902C100.815 18.318 100.876 18.695 100.997 19.033C101.127 19.371 101.322 19.6353 101.582 19.826C101.851 20.0167 102.193 20.112 102.609 20.112C102.921 20.112 103.19 20.0557 103.415 19.943C103.64 19.8303 103.818 19.6743 103.948 19.475C104.087 19.2756 104.173 19.0503 104.208 18.799H105.963C105.928 19.371 105.759 19.8737 105.456 20.307C105.161 20.7317 104.767 21.0653 104.273 21.308C103.788 21.5507 103.233 21.672 102.609 21.672Z" fill="#FDC800"/>
<path d="M110.569 21.672C109.963 21.672 109.43 21.568 108.97 21.36C108.52 21.152 108.143 20.8747 107.839 20.528C107.545 20.1727 107.319 19.7783 107.163 19.345C107.016 18.9117 106.942 18.4697 106.942 18.019V17.772C106.942 17.304 107.016 16.8533 107.163 16.42C107.319 15.978 107.545 15.588 107.839 15.25C108.143 14.9033 108.515 14.6303 108.957 14.431C109.399 14.223 109.911 14.119 110.491 14.119C111.254 14.119 111.891 14.288 112.402 14.626C112.922 14.9553 113.312 15.393 113.572 15.939C113.832 16.4763 113.962 17.057 113.962 17.681V18.331H107.709V17.226H112.831L112.272 17.772C112.272 17.3213 112.207 16.9357 112.077 16.615C111.947 16.2943 111.748 16.0473 111.479 15.874C111.219 15.7007 110.89 15.614 110.491 15.614C110.093 15.614 109.755 15.705 109.477 15.887C109.2 16.069 108.988 16.3333 108.84 16.68C108.702 17.018 108.632 17.4253 108.632 17.902C108.632 18.344 108.702 18.7383 108.84 19.085C108.979 19.423 109.191 19.6917 109.477 19.891C109.763 20.0817 110.127 20.177 110.569 20.177C111.011 20.177 111.371 20.0903 111.648 19.917C111.926 19.735 112.103 19.514 112.181 19.254H113.845C113.741 19.7393 113.542 20.164 113.247 20.528C112.953 20.892 112.576 21.1737 112.116 21.373C111.666 21.5723 111.15 21.672 110.569 21.672Z" fill="#FDC800"/>
<path d="M119.968 21.49V20.008H122.347C122.78 20.008 123.109 19.891 123.335 19.657C123.56 19.4143 123.673 19.085 123.673 18.669C123.673 18.253 123.56 17.9323 123.335 17.707C123.109 17.473 122.78 17.356 122.347 17.356H119.968V16.225H122.217C122.849 16.225 123.413 16.303 123.907 16.459C124.409 16.6063 124.799 16.8577 125.077 17.213C125.363 17.5683 125.506 18.045 125.506 18.643V18.825C125.506 19.3883 125.38 19.8693 125.129 20.268C124.886 20.658 124.518 20.9613 124.024 21.178C123.538 21.386 122.936 21.49 122.217 21.49H119.968ZM118.421 21.49V11.87H120.228V21.49H118.421ZM119.968 17.057V15.926H121.996C122.438 15.926 122.763 15.809 122.971 15.575C123.179 15.341 123.283 15.029 123.283 14.639C123.283 14.249 123.179 13.937 122.971 13.703C122.763 13.469 122.438 13.352 121.996 13.352H119.968V11.87H121.827C122.901 11.87 123.716 12.0953 124.271 12.546C124.834 12.9967 125.116 13.6423 125.116 14.483V14.665C125.116 15.2543 124.973 15.7267 124.687 16.082C124.409 16.4287 124.024 16.68 123.53 16.836C123.036 16.9833 122.468 17.057 121.827 17.057H119.968Z" fill="#FDC800"/>
<path d="M131.505 21.425V19.332H131.206V17.005C131.206 16.5977 131.106 16.2943 130.907 16.095C130.708 15.8957 130.4 15.796 129.984 15.796C129.767 15.796 129.507 15.8003 129.204 15.809C128.901 15.8177 128.593 15.8307 128.281 15.848C127.978 15.8567 127.705 15.8697 127.462 15.887V14.353C127.661 14.3357 127.887 14.3183 128.138 14.301C128.389 14.2837 128.645 14.275 128.905 14.275C129.174 14.2663 129.425 14.262 129.659 14.262C130.387 14.262 130.989 14.3573 131.466 14.548C131.951 14.7386 132.315 15.0377 132.558 15.445C132.809 15.8523 132.935 16.3853 132.935 17.044V21.425H131.505ZM129.23 21.607C128.719 21.607 128.268 21.516 127.878 21.334C127.497 21.152 127.198 20.892 126.981 20.554C126.773 20.216 126.669 19.8087 126.669 19.332C126.669 18.812 126.795 18.3873 127.046 18.058C127.306 17.7286 127.666 17.4817 128.125 17.317C128.593 17.1523 129.139 17.07 129.763 17.07H131.401V18.149H129.737C129.321 18.149 129 18.253 128.775 18.461C128.558 18.6603 128.45 18.9203 128.45 19.241C128.45 19.5617 128.558 19.8217 128.775 20.021C129 20.2203 129.321 20.32 129.737 20.32C129.988 20.32 130.218 20.2767 130.426 20.19C130.643 20.0947 130.82 19.9387 130.959 19.722C131.106 19.4967 131.189 19.1933 131.206 18.812L131.648 19.319C131.605 19.813 131.483 20.229 131.284 20.567C131.093 20.905 130.825 21.165 130.478 21.347C130.14 21.5203 129.724 21.607 129.23 21.607Z" fill="#FDC800"/>
<path d="M134.87 21.425V14.366H136.3V17.395H136.17C136.17 16.6756 136.266 16.0777 136.456 15.601C136.647 15.1157 136.929 14.7517 137.301 14.509C137.683 14.2663 138.155 14.145 138.718 14.145H138.796C139.637 14.145 140.274 14.418 140.707 14.964C141.141 15.5013 141.357 16.3073 141.357 17.382V21.425H139.55V17.226C139.55 16.7927 139.425 16.4417 139.173 16.173C138.931 15.9043 138.593 15.77 138.159 15.77C137.717 15.77 137.358 15.9087 137.08 16.186C136.812 16.4547 136.677 16.8187 136.677 17.278V21.425H134.87Z" fill="#FDC800"/>
<path d="M148.24 21.425L145.874 18.123H144.821L147.824 14.366H149.709L146.94 17.837L146.979 16.927L150.281 21.425H148.24ZM143.3 21.425V11.935H145.107V21.425H143.3Z" fill="#FDC800"/>
</svg>
